# xmcd
#
# Track frame offsets:
#	150
#	8025
#	17252
#	27507
#	37362
#	44772
#	53387
#	61782
#	75627
#	88040
#	95762
#	107602
#	118047
#	139357
#	149535
#	157510
#	172267
#	183680
#	193442
#	202432
#	218175
#	230102
#	241667
# Disc length: 3421 seconds
# Revision: 1
# Processed by: cddbd v1.5.1PL2 Copyright (c) Steve Scherf et al.
#
# Submitted via: libkcddb 0.20
#
DISCID=530d5b17
DTITLE=Mioara Velicu si Fanfara din "Zece Prajini" - Bate toba maruntel
DYEAR=1900
DGENRE=Ethnic
TTITLE0=Batuta lui Borona
TTITLE1=Mi-o spus, tata, intr-o seara
TTITLE2=Joaca, fetele cu foc
TTITLE3=Frumoasa-i nunta la tara
TTITLE4=Batuta de la "Zece Prajini"
TTITLE5=Bate toba maruntel!
TTITLE6=Jocu-i din batrani lasat
TTITLE7=Omule, te-as intreba
TTITLE8=Hora lui Tractoru
TTITLE9=Hai la joc, badita!
TTITLE10=Maine, toti recrutii pleaca
TTITLE11=Tare mi-e drag a juca
TTITLE12=Hora de la "Zece Prajini"
TTITLE13=Cand eram la mama fata
TTITLE14=Hai, sa scoatem dantu-afara!
TTITLE15=Insoara-te, mai badita!
TTITLE16=Sarba de la Iasi
TTITLE17=Hora de la Prut
TTITLE18=Astazi am sa cant mai bine
TTITLE19=Ma duc, mandro, la armata
TTITLE20=Tot pe loc, mai cu foc
TTITLE21=Greu e, Doamne, prin straini
TTITLE22=Sarba lui Costel Sarampel
EXTD=
EXTT0=
EXTT1=
EXTT2=
EXTT3=
EXTT4=
EXTT5=
EXTT6=
EXTT7=
EXTT8=
EXTT9=
EXTT10=
EXTT11=
EXTT12=
EXTT13=
EXTT14=
EXTT15=
EXTT16=
EXTT17=
EXTT18=
EXTT19=
EXTT20=
EXTT21=
EXTT22=
PLAYORDER=
